<?xml version="1.0" encoding="utf-8"?>
<!-- Generator: Adobe Illustrator 19.0.0, SVG Export Plug-In . SVG Version: 6.00 Build 0)  -->
<svg version="1.1" id="Layer_1" xmlns="http://www.w3.org/2000/svg" xmlns:xlink="http://www.w3.org/1999/xlink" x="0px" y="0px"
	 viewBox="0 0 512 512" style="enable-background:new 0 0 512 512;" xml:space="preserve">
<style type="text/css">
	.st0{fill:#FFFFFF;}
	.st1{fill:#0A071B;}
</style>
<g id="XMLID_20_">
	<path id="XMLID_21_" class="st0" d="M91.9,420.6c-43.5-42.5-69.3-101.3-69.3-163.9S48.4,135.3,91.9,91.8
		C134.4,48.4,193.2,23,255.8,23c63.1,0,122.3,25.3,164.9,68.8S489,194.1,489,256.7s-25.8,121.4-68.3,163.9S318.9,489,255.8,489
		C193.2,489,134.4,463.2,91.9,420.6z"/>
</g>
<g id="XMLID_16_">
	<path id="XMLID_19_" class="st1" d="M398.1,159c-22.7-22.7-54.3-35.7-86.7-35.7c-19.5,0-38.3,4.8-55.4,13.9
		c-17.3-9.2-36.1-13.9-56-13.9c-32.6,0-63.2,12.7-86.3,35.7c-22.6,22.6-35.5,53.9-35.5,86.1h0.1c0,38.3,14.2,74,40.1,100.4
		c27.8,28.4,65.6,43.4,109.3,43.5v0c0,0,0,0,0.1,0c0.1,0,0.1,0,0.2,0v0c7.3-0.1,14.1-3.2,19-8.1c4.8-4.8,7.8-11.7,7.8-19.3
		s-2.8-14.5-7.8-19.5c-4.9-4.9-11.8-7.9-19.2-7.9v0c-28.6,0-52.8-9.4-70.1-27c-15.8-16.1-24.4-38.1-24.4-62H133
		c0-17.7,7.1-34.9,19.5-47.3C165.1,185,182,178,200,178c14.5,0,27.5,4.4,39.6,13.5l16.5,12.4l16.4-12.5
		c11.7-8.9,24.7-13.4,38.8-13.4c18,0,35.4,7.2,47.9,19.7c12.5,12.5,19.7,29.7,19.7,47.3h-0.2c0,23.9-8.7,45.9-24.7,62
		c-17.1,17.5-41.1,26.8-69.1,27v0c-0.1,0-0.3,0-0.4,0c-0.1,0-0.2,0-0.3,0v0c-7.1,0.2-13.7,3.2-18.5,8c-4.8,4.8-7.8,11.7-7.8,19.3
		s2.8,14.5,7.8,19.5c4.8,4.8,11.4,7.7,18.5,7.9v0.1c0.2,0,0.3,0,0.5,0c0.1,0,0.1,0,0.2,0v0c43.2-0.2,80.6-15.2,108.2-43.3
		c26.1-26.3,40.4-62,40.4-100.5h0.2C433.8,213,420.8,181.7,398.1,159z"/>
	<circle id="XMLID_18_" class="st1" cx="188.8" cy="251.1" r="27.6"/>
	<circle id="XMLID_17_" class="st1" cx="323.7" cy="251.1" r="27.6"/>
</g>
</svg>
