<?xml version="1.0" encoding="utf-8"?>
<!-- Generator: Adobe Illustrator 19.0.0, SVG Export Plug-In . SVG Version: 6.00 Build 0)  -->
<svg version="1.1" id="Layer_1" xmlns="http://www.w3.org/2000/svg" xmlns:xlink="http://www.w3.org/1999/xlink" x="0px" y="0px"
	 viewBox="-703 285 512 512" style="enable-background:new -703 285 512 512;" xml:space="preserve">
<style type="text/css">
	.st0{fill:#0A071B;}
	.st1{fill:#FFFFFF;}
</style>
<g id="XMLID_20_">
	<path id="XMLID_21_" class="st0" d="M-611.1,705.6c-43.5-42.5-69.3-101.3-69.3-163.9s25.8-121.4,69.3-164.9
		c42.5-43.4,101.3-68.8,163.9-68.8c63.1,0,122.3,25.3,164.9,68.8S-214,479.1-214,541.7s-25.8,121.4-68.3,163.9S-384.1,774-447.2,774
		C-509.8,774-568.6,748.2-611.1,705.6z"/>
</g>
<g id="XMLID_16_">
	<path id="XMLID_19_" class="st1" d="M-304.9,444c-22.7-22.7-54.3-35.7-86.7-35.7c-19.5,0-38.3,4.8-55.4,13.9
		c-17.3-9.2-36.1-13.9-56-13.9c-32.6,0-63.2,12.7-86.3,35.7c-22.6,22.6-35.5,53.9-35.5,86.1h0.1c0,38.3,14.2,74,40.1,100.4
		c27.8,28.4,65.6,43.4,109.3,43.5l0,0c0,0,0,0,0.1,0c0.1,0,0.1,0,0.2,0l0,0c7.3-0.1,14.1-3.2,19-8.1c4.8-4.8,7.8-11.7,7.8-19.3
		s-2.8-14.5-7.8-19.5c-4.9-4.9-11.8-7.9-19.2-7.9l0,0c-28.6,0-52.8-9.4-70.1-27c-15.8-16.1-24.4-38.1-24.4-62h-0.3
		c0-17.7,7.1-34.9,19.5-47.3C-537.9,470-521,463-503,463c14.5,0,27.5,4.4,39.6,13.5l16.5,12.4l16.4-12.5
		c11.7-8.9,24.7-13.4,38.8-13.4c18,0,35.4,7.2,47.9,19.7s19.7,29.7,19.7,47.3h-0.2c0,23.9-8.7,45.9-24.7,62
		c-17.1,17.5-41.1,26.8-69.1,27l0,0c-0.1,0-0.3,0-0.4,0s-0.2,0-0.3,0l0,0c-7.1,0.2-13.7,3.2-18.5,8s-7.8,11.7-7.8,19.3
		s2.8,14.5,7.8,19.5c4.8,4.8,11.4,7.7,18.5,7.9v0.1c0.2,0,0.3,0,0.5,0c0.1,0,0.1,0,0.2,0l0,0c43.2-0.2,80.6-15.2,108.2-43.3
		c26.1-26.3,40.4-62,40.4-100.5h0.2C-269.2,498-282.2,466.7-304.9,444z"/>
	<circle id="XMLID_18_" class="st1" cx="-514.2" cy="536.1" r="27.6"/>
	<circle id="XMLID_17_" class="st1" cx="-379.3" cy="536.1" r="27.6"/>
</g>
</svg>
