<?xml version="1.0" encoding="utf-8"?>
<!-- Generator: Adobe Illustrator 23.1.0, SVG Export Plug-In . SVG Version: 6.00 Build 0)  -->
<svg version="1.1" id="Layer_1" xmlns="http://www.w3.org/2000/svg" xmlns:xlink="http://www.w3.org/1999/xlink" x="0px" y="0px"
	 viewBox="0 0 512 512" style="enable-background:new 0 0 512 512;" xml:space="preserve">
<style type="text/css">
	.st0{fill:#0D0C1A;}
</style>
<path class="st0" d="M420.9,91.8C378.3,48.3,319.1,23,256,23c-62.6,0-121.4,25.4-163.9,68.8c-43.5,43.5-69.3,102.3-69.3,164.9
	s25.8,121.4,69.3,163.9C134.6,463.2,193.4,489,256,489c63.1,0,122.4-25.9,164.9-68.4s68.3-101.3,68.3-163.9S463.5,135.3,420.9,91.8z
	 M393.1,345.5c-27.6,28.1-65,43.1-108.2,43.3c-0.1,0-0.1,0-0.2,0c-0.2,0-0.3,0-0.5,0v-0.1c-7.1-0.2-13.7-3.1-18.5-7.9
	c-5-5-7.8-11.9-7.8-19.5s3-14.5,7.8-19.3c4.8-4.8,11.4-7.8,18.5-8c0.1,0,0.2,0,0.3,0c0.1,0,0.3,0,0.4,0c28-0.2,52-9.5,69.1-27
	c16-16.1,24.7-38.1,24.7-62h0.2c0-17.6-7.2-34.8-19.7-47.3S329.3,178,311.3,178c-14.1,0-27.1,4.5-38.8,13.4l-16.4,12.5l-16.5-12.4
	c-12.1-9.1-25.1-13.5-39.6-13.5c-18,0-34.9,7-47.5,19.9c-12.4,12.4-19.5,29.6-19.5,47.3h0.3c0,23.9,8.6,45.9,24.4,62
	c17.3,17.6,41.5,27,70.1,27c7.4,0,14.3,3,19.2,7.9c5,5,7.8,11.9,7.8,19.5c0,7.6-3,14.5-7.8,19.3c-4.9,4.9-11.7,8-19,8.1
	c-0.1,0-0.1,0-0.2,0c-0.1,0-0.1,0-0.1,0c-43.7-0.1-81.5-15.1-109.3-43.5c-25.9-26.4-40.1-62.1-40.1-100.4h-0.1
	c0-32.2,12.9-63.5,35.5-86.1c23.1-23,53.7-35.7,86.3-35.7c19.9,0,38.7,4.7,56,13.9c17.1-9.1,35.9-13.9,55.4-13.9
	c32.4,0,64,13,86.7,35.7c22.7,22.7,35.7,54,35.6,86h-0.2C433.5,283.5,419.2,319.2,393.1,345.5z M290.3,262.1
	c0-6.3,2.5-12.6,7.9-18.1l8.8-8.8c5.4-5.4,11.7-8,18.1-8c6.1,0,12,2.7,16.4,7.1c4.5,4.5,7,10.4,7.1,16.5c0.1,6.4-2.5,12.7-7.9,18.2
	l-8.8,8.8c-5.4,5.4-11.7,7.9-18.1,7.9c-6.1,0-12-2.6-16.5-7.1C292.9,274.2,290.3,268.2,290.3,262.1z M228.8,262.1
	c0,6.1-2.6,12-7,16.5c-4.5,4.5-10.4,7-16.5,7.1c-6.4,0.1-12.7-2.5-18.1-7.9l-8.8-8.8c-5.4-5.4-8-11.8-7.9-18.2
	c0.1-6.1,2.6-12,7.1-16.5c4.4-4.4,10.4-7,16.4-7.1c6.4,0,12.7,2.6,18.1,8l8.8,8.8C226.3,249.5,228.9,255.8,228.8,262.1z"/>
</svg>
