<?xml version="1.0" encoding="utf-8"?>
<!-- Generator: Adobe Illustrator 23.1.0, SVG Export Plug-In . SVG Version: 6.00 Build 0)  -->
<svg version="1.1" id="Capa_1" xmlns="http://www.w3.org/2000/svg" xmlns:xlink="http://www.w3.org/1999/xlink" x="0px" y="0px"
	 viewBox="0 0 512 512" style="enable-background:new 0 0 512 512;" xml:space="preserve">
<style type="text/css">
	.st0{fill:#E3D6B5;}
</style>
<g>
	<g>
		<g>
			<g>
				<path class="st0" d="M373.9,176.4c-21.4-21.6-51.3-34.4-88-34.4H226c-36.7,0-66.8,12.8-88.4,34.4
					c-20.5,20.7-31.7,49.7-31.7,79.7c0,30.4,11.3,59,31.7,79.9c21.4,21.8,51.8,34.7,88.4,34.7h59.9c36.7,0,66.6-12.8,88-34.7
					c20.7-20.9,32-49.5,32-79.9C405.9,226.2,394.6,197.1,373.9,176.4z M370.2,249.3c0,24.7-9.2,47.7-26,64.6
					c-17.7,18.1-41.8,27.8-69.6,27.9v0c0,0-0.1,0-0.1,0c-0.1,0-0.2,0-0.3,0v0c-4.5-0.1-8.8-2-11.9-5.1c-3.2-3.2-5-7.6-5-12.5
					c0-4.9,1.9-9.4,5-12.4c3.1-3.1,7.3-5,11.9-5.2v0c0.1,0,0.1,0,0.2,0c0.1,0,0.2,0,0.3,0v0c18.1-0.1,33.4-6.1,44.5-17.3
					c10.2-10.4,15.9-24.5,15.9-39.9h0.1c0-11.3-4.6-22.4-12.7-30.4c-8-8-19.3-12.7-30.8-12.7c-9.1,0-17.5,2.9-25,8.6l-10.6,8
					l-10.6-8c-7.8-5.9-16.2-8.7-25.5-8.7c-11.6,0-22.4,4.5-30.6,12.7c-8,8-12.5,19-12.5,30.4h0.1c0,15.4,5.6,29.5,15.7,39.9
					c11.1,11.3,26.7,17.3,45.1,17.4v0c4.7,0,9.2,1.9,12.3,5.1c3.2,3.2,5,7.6,5,12.5c0,4.9-1.9,9.4-5,12.4c-3.2,3.2-7.5,5.2-12.2,5.2
					v0c0,0-0.1,0-0.1,0c0,0,0,0,0,0v0c-28.1,0-52.4-9.7-70.3-28c-16.6-17-25.8-39.9-25.8-64.6h-0.1c0-20.7,8.3-40.9,22.8-55.4
					c14.8-14.8,34.5-23,55.5-23c12.8,0,24.9,3,36,9c11-5.9,23.2-9,35.7-9c20.8,0,41.2,8.4,55.8,23
					C361.9,208.5,370.3,228.7,370.2,249.3L370.2,249.3z"/>
			</g>
		</g>
	</g>
</g>
</svg>
